<svg width="99" height="96" viewBox="0 0 99 96" fill="none" xmlns="http://www.w3.org/2000/svg">
<g clip-path="url(#clip0_1123_13)">
<path d="M45.0712 50.632C47.844 47.8592 47.844 43.3638 45.0712 40.5911C42.2985 37.8183 37.803 37.8183 35.0303 40.5911C32.2576 43.3638 32.2576 47.8592 35.0303 50.632C37.803 53.4047 42.2985 53.4047 45.0712 50.632Z" fill="#231F20"/>
<path d="M63.7117 50.6315C66.4844 47.8588 66.4844 43.3633 63.7117 40.5906C60.939 37.8178 56.4435 37.8178 53.6708 40.5906C50.8981 43.3633 50.8981 47.8588 53.6708 50.6315C56.4435 53.4042 60.939 53.4042 63.7117 50.6315Z" fill="#231F20"/>
<path d="M82.4841 50.6291C85.2568 47.8564 85.2568 43.3609 82.4841 40.5882C79.7114 37.8155 75.2159 37.8155 72.4432 40.5882C69.6705 43.3609 69.6705 47.8564 72.4432 50.6291C75.2159 53.4018 79.7114 53.4018 82.4841 50.6291Z" fill="#231F20"/>
<path d="M26.0556 67.4406C28.8283 64.6678 28.8283 60.1724 26.0556 57.3996C23.2829 54.6269 18.7874 54.6269 16.0147 57.3996C13.2419 60.1724 13.2419 64.6678 16.0147 67.4406C18.7874 70.2133 23.2829 70.2133 26.0556 67.4406Z" fill="#231F20"/>
<path d="M41.6785 69.3311C45.4948 68.4303 47.8584 64.6063 46.9577 60.79C46.0569 56.9736 42.2329 54.61 38.4166 55.5108C34.6002 56.4115 32.2366 60.2355 33.1374 64.0519C34.0381 67.8682 37.8621 70.2318 41.6785 69.3311Z" fill="#231F20"/>
<path d="M60.318 69.8067C64.1343 68.906 66.4979 65.082 65.5972 61.2656C64.6964 57.4493 60.8725 55.0857 57.0561 55.9864C53.2397 56.8872 50.8762 60.7111 51.7769 64.5275C52.6777 68.3439 56.5016 70.7074 60.318 69.8067Z" fill="#231F20"/>
<path d="M79.0881 69.3377C82.9045 68.4369 85.268 64.6129 84.3673 60.7966C83.4665 56.9802 79.6426 54.6166 75.8262 55.5174C72.0099 56.4181 69.6463 60.2421 70.547 64.0585C71.4478 67.8748 75.2717 70.2384 79.0881 69.3377Z" fill="#231F20"/>
<path d="M22.6701 86.5377C26.4865 85.6369 28.8501 81.8129 27.9493 77.9966C27.0486 74.1802 23.2246 71.8166 19.4082 72.7174C15.5919 73.6181 13.2283 77.4421 14.129 81.2585C15.0298 85.0748 18.8538 87.4384 22.6701 86.5377Z" fill="#231F20"/>
<path d="M45.077 84.6477C47.8497 81.875 47.8497 77.3795 45.077 74.6068C42.3043 71.8341 37.8088 71.8341 35.0361 74.6068C32.2634 77.3795 32.2634 81.875 35.0361 84.6477C37.8088 87.4204 42.3043 87.4204 45.077 84.6477Z" fill="#231F20"/>
<path d="M63.7175 84.6473C66.4902 81.8746 66.4902 77.3791 63.7175 74.6064C60.9447 71.8336 56.4493 71.8337 53.6766 74.6064C50.9038 77.3791 50.9038 81.8746 53.6766 84.6473C56.4493 87.42 60.9448 87.42 63.7175 84.6473Z" fill="#231F20"/>
<path d="M82.4799 84.6549C85.2526 81.8821 85.2526 77.3867 82.4799 74.6139C79.7071 71.8412 75.2117 71.8412 72.4389 74.6139C69.6662 77.3867 69.6662 81.8821 72.4389 84.6549C75.2117 87.4276 79.7071 87.4276 82.4799 84.6549Z" fill="#231F20"/>
<path d="M88.64 7.9H79.53V2.84C79.53 1.27 78.26 0 76.69 0H76.6C75.03 0 73.76 1.27 73.76 2.84V7.9H51.46V2.84C51.46 1.27 50.19 0 48.62 0H48.53C46.96 0 45.69 1.27 45.69 2.84V7.9H23.04V2.84C23.04 1.27 21.77 0 20.2 0H20.11C18.54 0 17.27 1.27 17.27 2.84V7.9H9.84C4.39 7.9 0 12.3 0 17.72V85.66C0 91.08 4.39 95.48 9.82 95.48H88.64C94.06 95.48 98.46 91.09 98.46 85.66V17.72C98.46 12.3 94.07 7.9 88.64 7.9ZM73.75 13.96V19.94C73.75 21.51 75.02 22.78 76.59 22.78H76.68C78.25 22.78 79.52 21.51 79.52 19.94V13.96C81.69 14.99 83.23 17.14 83.38 19.67C83.59 23.37 80.44 26.77 76.73 26.82C72.95 26.88 69.87 23.83 69.87 20.06C69.87 17.36 71.45 15.04 73.74 13.96H73.75ZM45.67 13.96V19.94C45.67 21.51 46.94 22.78 48.51 22.78H48.6C50.17 22.78 51.44 21.51 51.44 19.94V13.96C53.61 14.99 55.15 17.14 55.3 19.67C55.51 23.37 52.36 26.77 48.65 26.82C44.87 26.88 41.79 23.83 41.79 20.06C41.79 17.36 43.37 15.04 45.66 13.96H45.67ZM17.25 13.51V19.94C17.25 21.51 18.52 22.78 20.09 22.78H20.18C21.75 22.78 23.02 21.51 23.02 19.94V13.51C25.19 14.54 26.73 16.69 26.88 19.22C27.09 22.92 23.94 26.32 20.23 26.37C16.45 26.43 13.37 23.38 13.37 19.61C13.37 16.91 14.95 14.59 17.24 13.51H17.25ZM95.36 84.46C95.36 88.57 92.03 91.9 87.92 91.9H9.49C6.13 91.9 3.4 89.17 3.4 85.81V32.94H95.35V84.45L95.36 84.46Z" fill="#231F20"/>
</g>
<defs>
<clipPath id="clip0_1123_13">
<rect width="98.45" height="95.47" fill="white"/>
</clipPath>
</defs>
</svg>
